<svg width="31" height="28" viewBox="0 0 31 28" fill="none" xmlns="http://www.w3.org/2000/svg">
<path d="M16.8159 18.014L17.6692 18.9106L15.3937 22.7133L13.1181 18.9106L13.9714 18.014H16.8159Z" fill="#989FF8"/>
<path d="M20.5472 12.662L17.6692 13.9674L19.5433 11.3566L21.4842 10.704L20.5472 12.662Z" fill="#989FF8"/>
<path d="M10.2401 12.662L13.1181 13.9674L11.2441 11.3566L9.30313 10.704L10.2401 12.662Z" fill="#989FF8"/>
<path fill-rule="evenodd" clip-rule="evenodd" d="M6.22439 4.30769L9.37006 0L15.3937 2.74126L21.4173 0L24.5629 4.30769L30.7873 10.2471L15.3937 28L0 10.2471L6.22439 4.30769ZM15.3937 24.8019L20.2795 19.0256L22.4881 13.2494L23.9606 15.1422L26.7047 12.1399L28.6456 9.92075L26.9724 9.79021L21.4173 4.30769L15.3937 11.2261L9.37006 4.30769L3.81495 9.79021L2.14173 9.92075L4.08267 12.1399L6.82676 15.1422L8.29919 13.2494L10.5078 19.0256L15.3937 24.8019Z" fill="#77E5EF"/>
</svg>
